<!DOCTYPE svg PUBLIC "-//W3C//DTD SVG 1.1//EN" "http://www.w3.org/Graphics/SVG/1.1/DTD/svg11.dtd">
<svg xmlns="http://www.w3.org/2000/svg" viewBox="0 0 241 253">
<path fill="#fafafa" stroke="#fafafa" d="M107.5 9.611c-1.1.225-4.475.889-7.5 1.476-8.759 1.699-23.975 8.013-36.72 15.238C39.371 39.878 16.843 71.926 11.841 99.5c-1.612 8.892-1.677 41.068-.097 48.862 2.111 10.417 11.358 32.818 14.688 35.582.874.725 3.578 4.311 6.01 7.968 6.029 9.07 12.077 15.764 15.883 17.581 1.746.834 4.265 3.118 5.597 5.075 1.333 1.957 3.805 4.274 5.495 5.147 1.689.874 5.324 3.217 8.077 5.208C75.577 230.766 99.612 242 104.031 242c3.206 0 4.16-3.387 3.402-12.079-.689-7.899-.218-11.882 3.243-27.421 4.489-20.149 21.74-34.5 41.472-34.5 19.739 0 44.014-17.432 48.74-35 5.29-19.662 5.218-30.112-.316-45.796-4.746-13.453-21.091-27.045-36.913-30.696-8.349-1.927-66.947-2.344-69.178-.492-5.168 4.288 4.741 21.563 13.834 24.118 2.564.721 13.288 1.248 27.685 1.36 26.063.205 26.665.325 33.653 6.728 10.255 9.397 13.58 24.799 7.735 35.829-2.546 4.804-3.213 5.412-5.638 5.133-1.512-.174-2.75-.894-2.75-1.6 0-.706-1.35-3.148-3-5.425-1.65-2.278-3-4.569-3-5.091 0-2.434-2.513-1.896-7.772 1.665-20.666 13.992-21.698 14.023-21.788.658-.093-13.796-1.012-17.096-5.562-19.968-4.309-2.72-6.567-2.975-9.128-1.031-2.145 1.628-2.218 2.975-.25 4.608 3.665 3.042 1.908 4.79-9.5 9.445-9.661 3.942-26.554 12.608-29.48 15.123-1.557 1.337-3.159 2.432-3.56 2.432-4.222 0-26.383 25.509-33.086 38.084-1.995 3.744-3.791 5.916-4.891 5.916-.957 0-2.356.924-3.111 2.054-1.234 1.848-1.385 1.369-1.503-4.75-.093-4.81-.878-8.576-2.677-12.849-8.024-19.058-8.704-35.38-2.601-62.394 2.58-11.424 10.305-24.027 22.853-37.286C58.665 50.617 71.527 40 73.69 40c.327 0 3.415-1.782 6.863-3.96 9.66-6.1 27.125-11.035 39.072-11.039 10.174-.003 13.896-3.39 13.171-11.984L132.5 9.5 121 9.351c-6.325-.082-12.4.035-13.5.26m23.124 1.928c-.965 2.514-.681 3.163.498 1.136.584-1.004.851-2.036.593-2.293-.257-.258-.749.263-1.091 1.157M111.981 134.8c-16.702 9.977-29.617 22.335-38.757 37.085-9.674 15.611-9.533 18.072 1.036 18.1l5.76.015 4.259-8.764C89.585 170.317 107.013 148 110.234 148c2.701 0 8.834-5.584 9.748-8.875 2.216-7.978.063-9.142-8.001-4.325M222 166c-1.1 1.1-2 2.73-2 3.622 0 4.84-13.61 24.992-22.641 33.523-3.808 3.596-21.021 15.594-26.26 18.304-9.142 4.727-19.705 6.889-40.98 8.388-12.972.913-14.119 1.626-14.119 8.771 0 6.366 4.723 7.934 21.108 7.008 41.253-2.332 75.742-25.831 94.837-64.616 1.76-3.575 3.842-7.21 4.627-8.079 2.073-2.291 1.792-6.656-.506-7.886-3.45-1.846-11.829-1.272-14.066.965M82.46 201.25c-1.069 2.774.365 5.802 1.657 3.5.643-1.146.643-2.354 0-3.5-.936-1.667-1.015-1.667-1.657 0" fill-rule="evenodd"/>
<path fill="#2d9fc5" stroke="#2d9fc5" d="M123.762 9.707c1.244.239 3.044.23 4-.02s-.062-.446-2.262-.435c-2.2.011-2.982.216-1.738.455m-5.984 1.848c-.305.305-5.647.695-11.872.866-6.93.191-11.456.729-11.676 1.389-.198.593-1.079.801-1.959.464-1.062-.408-1.356-.221-.876.556.498.806-.337 1.17-2.68 1.17-2.162 0-4.436.887-6.232 2.43-1.555 1.336-4.888 3.167-7.405 4.069-4.716 1.688-5.769 2.162-12.578 5.661-20.544 10.56-43.509 42.772-49.445 69.356-3.402 15.235-2.733 46.372 1.224 56.984.82 2.2 2.697 7.375 4.171 11.5 3.284 9.192 8.254 17.689 10.724 18.335 1.062.278 2.092 1.744 2.436 3.467.329 1.642 2.238 5.014 4.244 7.493a633.63 633.63 0 0 1 6.439 8.106C44.98 206.865 48 208.187 48 205.9c0-.961 7.53 8.364 8.234 10.196.146.381 1.671 1.528 3.388 2.548 1.717 1.021 5.227 3.355 7.799 5.188 3.816 2.718 4.949 3.106 6.152 2.107.812-.673 1.577-1.047 1.701-.832.124.216.722 1.289 1.329 2.384C78.326 230.599 99.196 241 103.712 241c1.95 0 2.606-3.369 2.821-14.5.422-21.81 4.442-34.448 14.185-44.594 10.244-10.667 14.532-12.769 29.599-14.515 15.039-1.743 19.688-3.243 28.922-9.332 8.548-5.636 13.308-10.364 12.216-12.132-.471-.762-.352-.981.31-.572 1.282.792 4.859-3.519 6.826-8.227 1.676-4.01 1.724-4.441.409-3.628-1.27.785-1.322 1.108 1.013-6.339 8.595-27.418-6.541-57.676-33.681-67.329-7.158-2.546-64.502-4.779-69.582-2.71-3.98 1.622-3.562 5.213 1.5 12.883 6.838 10.362 6.753 10.337 36.155 10.494 23.405.125 25.364.276 29.095 2.233 10.143 5.321 18.498 19.181 18.135 30.084-.159 4.775-6.629 19.856-7.952 18.534-.341-.342-1.708.092-3.037.962-2.907 1.905-3.646 1.348-3.646-2.747 0-1.705-1.133-4.767-2.517-6.805-2.82-4.15-6.53-4.347-11.368-.605-1.312 1.015-2.919 1.845-3.573 1.845-.653 0-4.424 2.071-8.38 4.601-9.164 5.863-10.149 5.558-8.915-2.761 1.599-10.773 1.167-13.4-3.758-22.84-3.507-6.722-10.066-6.249-7.607.549.881 2.438.963 3.933.261 4.778-.713.86-.437 2.535.918 5.561 2.207 4.93 2.247 5.112 1.097 5.112-.463 0-1.367-1.753-2.009-3.897-1.32-4.406-3.583-5.812-5.795-3.6-.823.823-2.104 1.497-2.845 1.497-.742 0-6.616 2.475-13.054 5.5-6.438 3.025-12.097 5.5-12.577 5.5-1.441 0-12.174 8.235-20.327 15.596-8.125 7.335-16.83 18.569-22.979 29.654-2.059 3.712-4.152 6.75-4.65 6.75-.499 0-2.133 1.376-3.631 3.058-3.172 3.559-4.694 1.872-3.16-3.503.497-1.741.42-4.51-.19-6.773-.567-2.105-.838-4.155-.603-4.555.684-1.164-1.235-5.409-2.181-4.824-.823.509-3.398-6.402-3.014-8.09.27-1.187-1.111-6.531-2.215-8.567-1.516-2.798-2.211-18.73-1.079-24.746 3.44-18.284 4.572-23.16 6.74-29.026 4.346-11.761 13.535-24.635 25.633-35.915 7.342-6.846 18.536-15.051 20.547-15.063.402-.003 2.756-1.356 5.231-3.008 8.776-5.857 22.092-9.702 37.5-10.83 6.143-.449 8.927-1.036 8.769-1.85-.126-.655.148-3.219.611-5.696.666-3.566.541-4.62-.601-5.058-1.872-.719-8.782-.718-9.501.001m12.846 4.984c-.965 2.514-.681 3.163.498 1.136.584-1.004.851-2.036.593-2.293-.257-.258-.749.263-1.091 1.157m59.158 56.978c2.275 2.759 5.533 7.484 7.238 10.5 1.705 3.015 2.81 4.358 2.454 2.983-.877-3.389-6.713-11.921-10.631-15.543-2.588-2.392-2.409-1.999.939 2.06m-76.586 59.733c-18.252 9.734-36.559 27.663-44.672 43.75-3.303 6.549-4.501 7.37-7.142 4.889l-2.28-2.142-.634 2.525c-.821 3.271-.239 7.319.993 6.904.528-.178 1.233.453 1.566 1.402.488 1.389 1.918 1.745 7.326 1.824 8.281.121 8.731.71 8.094 10.598-.331 5.144-.185 6.872.465 5.5.939-1.983.948-1.983 1.018.05.195 5.701 5.337 4.766 7.004-1.274 1.045-3.783.442-10.926-.997-11.815-.44-.272-1.554.526-2.476 1.772-1.635 2.213-1.66 2.161-1.028-2.164 2.139-14.62 20.186-40.708 33.273-48.097 6.021-3.399 6.809-4.589 7.773-11.722.866-6.415.267-6.56-8.283-2M227.5 165c1.1.473 3.125.846 4.5.83l2.5-.029L232 165c-1.375-.44-3.4-.814-4.5-.83l-2-.029 2 .859m-6.675 5.25c-5.672 19.214-31.494 44.691-54.957 54.226-7.151 2.905-35.02 7.524-45.403 7.524-1.367 0-3.465 3.684-3.465 6.086 0 4.962 4.519 6.906 16.066 6.91 20.613.008 42.2-7.075 61.527-20.188 8.35-5.665 24.741-22.496 23.94-24.582-.28-.731-.065-1.055.478-.719.89.55 1.421-.772 1.107-2.757-.065-.412.39-.637 1.01-.5.621.138 3.743-4.475 6.938-10.25s6.512-11.485 7.371-12.688c.86-1.204 1.563-2.929 1.563-3.833 0-2.879-2.219-1.033-3.888 3.234-.887 2.267-1.997 4.496-2.467 4.954-.47.458-.133-.909.75-3.039 2.384-5.752 2.094-7.28-1.52-8.003-6.69-1.338-7.704-.932-9.05 3.625" fill-rule="evenodd"/>
<path fill="#1d7ea7" stroke="#1d7ea7" d="M116.228 22.561c.773.773 8.723.821 9.487.058.34-.341-1.782-.619-4.715-.619s-5.081.253-4.772.561m-15.581 2.072c-21.201 4.547-50.453 24.62-58.974 40.469L39.846 68.5l2.648-3C53.228 53.344 71.161 38 74.635 38c.399 0 3.457-1.75 6.795-3.888 6.825-4.372 12.613-6.451 25.331-9.1 6.482-1.35 7.706-1.824 4.739-1.834-2.2-.008-7.084.647-10.853 1.455m-41.834 11.05c.721.289 1.584.253 1.916-.079.332-.332-.258-.568-1.312-.525-1.165.048-1.402.285-.604.604M66 36c-.901.582-1.025.975-.309.985.655.008 1.469-.435 1.809-.985.767-1.242.421-1.242-1.5 0m-3.46 3.347c-1.215.888-1.467 1.58-.742 2.028.606.375 1.59-.232 2.187-1.347 1.276-2.385 1.038-2.497-1.445-.681m-6.04.486c-.922.923-.512 2.292.5 1.667 1.801-1.113 1.047 1.147-1 3-1.943 1.758-2 1.747-2-.404 0-1.221-.448-1.937-1-1.596-.55.34-1.014-.196-1.03-1.191-.029-1.712-.085-1.715-1.055-.051-.563.967-.747 2.204-.41 2.75.337.546.174.992-.363.992-.536 0-1.134-.477-1.328-1.059-.698-2.094-13.564 8.361-15.456 12.559-.992 2.2-2.054 4.225-2.36 4.5C30.161 61.751 22 75.034 22 75.646c0 .292-1.35 3.447-3 7.012-1.65 3.565-3 6.906-3 7.425 0 .519-.423 1.726-.94 2.681-1.331 2.459-3.274 17.869-3.811 30.236-.517 11.886 1.628 26.557 4.97 33.992 1.11 2.471 2.815 6.971 3.787 10 2.535 7.895 5.16 13.008 6.679 13.008.723 0 1.315.73 1.315 1.622 0 3.149 2.771-.532 3.206-4.259.381-3.268.295-3.412-1.029-1.715-1.385 1.774-1.413 1.768-.65-.148 1.891-4.749 1.645-9.228-.777-14.104-16.796-33.821-5.952-81.521 26.056-114.621 4.743-4.904 5.964-7.442 3.581-7.442-.763 0-1.612.225-1.887.5M94 60.628c0 5.073 9.131 16.6 14.571 18.395 4.814 1.589 54.171 1.916 51.127.338-1.349-.698-11.409-1.381-26.046-1.767-14.072-.371-24.731-1.08-26-1.729-4.242-2.167-9.643-10.069-9.648-14.115C98.001 59.668 97.514 59 96 59c-1.181 0-2 .667-2 1.628M37 72c-.589 1.1-.845 2-.57 2s.981-.9 1.57-2c.589-1.1.845-2 .57-2s-.981.9-1.57 2m135.188 16.75c1.977 2.063 4.524 5.55 5.659 7.75 1.579 3.059 2.075 3.492 2.109 1.842.048-2.359-8.36-13.342-10.214-13.342-.631 0 .47 1.688 2.446 3.75M121 99.883c0 .563.524 2.173 1.164 3.578.901 1.977.88 3.089-.092 4.905-1.069 1.996-.949 2.954.792 6.368 2.239 4.389 1.988 5.266-1.511 5.266-2.002 0-2.265-.421-1.951-3.12l.364-3.12-4.294.589c-3.789.519-8.607 2.471-24.038 9.737-2.236 1.053-4.514 1.914-5.061 1.914-.548 0-1.868.802-2.934 1.782-1.067.98-3.595 2.797-5.619 4.038-2.024 1.241-4.959 3.702-6.521 5.468-1.562 1.767-4.783 4.863-7.156 6.882-5.658 4.812-14.744 16.833-20.243 26.785-2.63 4.759-4.976 7.878-5.831 7.754-4.483-.654-7.062 9.44-3.358 13.145.886.886 3.068 3.889 4.849 6.672 5.815 9.091 8.612 9.418 9.977 1.166 1.604-9.696 10.368-29.94 15.467-35.729l2.169-2.463-2.123 3.206c-5.223 7.885-14.987 33.246-15.032 39.044-.035 4.369 1.804 2.181 2.516-2.995.443-3.224 1.396-5.718 2.471-6.471 1.235-.865 1.879-3.006 2.188-7.27.525-7.258 1.885-9.158 4.72-6.592 2.356 2.131 3.847 1.389 5.609-2.794 6.921-16.421 39.381-45.994 52.453-47.788 5.675-.779 2.311 12.408-4.137 16.219-5.815 3.436-12.993 10.134-17.976 16.774-2.339 3.117-5.296 6.822-6.57 8.235C89.019 173.587 82 189.181 82 191.712c0 .709.627 1.288 1.393 1.288 2.14 0 2.607 2.331 2.607 13.023 0 9.035-.886 12.589-2.49 9.993-.999-1.617-2.322-1.184-3.01.984-1.016 3.201-2.5 2.311-2.5-1.5 0-1.925-.45-3.5-1-3.5-1.626 0-1.681 11.936-.06 12.987.435.282 1.107 1.526 1.493 2.764.778 2.493 4.059 4.681 5.595 3.732.542-.335 1.248.072 1.567.905.32.834 2.23 2.046 4.243 2.694 2.014.648 4.112 1.505 4.662 1.903.55.399 2.35 1.194 4 1.768 1.65.573 3.699 1.327 4.552 1.676 1.362.555 1.555-1.187 1.574-14.148.032-21.753 4.316-35.784 14.044-45.997 4.448-4.67 4.489-4.689 1.726-.784-2.746 3.881-2.647 3.835 3.33-1.544 7.689-6.921 13.459-9.842 21.5-10.887 5.501-.715 5.781-.847 2.274-1.075-2.926-.19-1.944-.478 3.654-1.071 16.045-1.701 26.359-6.439 34.346-15.778l3-3.508-2.75 1.796c-1.512.988-2.75 1.343-2.75.789 0-.554.675-1.267 1.5-1.584.825-.316 1.5-1.094 1.5-1.729 0-.831-.419-.806-1.5.091-.825.685-1.556.965-1.625.622A47.166 47.166 0 0 0 182.5 144a19.695 19.695 0 0 1-.375-2.122c-.09-.812-.516-.798-1.536.048-.868.721-1.64.801-2.006.208-.328-.53-.03-1.161.661-1.404.691-.242.027-.449-1.476-.46-1.523-.011-2.465.411-2.129.955.331.536-.378.45-1.577-.192-2.692-1.441-6.962-.593-13.427 2.665-4.33 2.182-27.001 5.269-28.403 3.868-.964-.964 7.465-2.779 16.268-3.503 9.817-.807 15.6-2.418 18.582-5.174.826-.764 2.357-1.871 3.401-2.46 2.134-1.205 3.219-3.429 1.672-3.429-.557 0-1.698.686-2.536 1.524-1.896 1.896-3.619-.638-3.619-5.323 0-6.371-6.501-9.866-11.5-6.183-.55.406-2.125 1.08-3.5 1.499-1.375.419-6.467 2.995-11.316 5.723-4.849 2.729-9.087 4.69-9.42 4.358-.332-.332.148-4.1 1.066-8.374 2.254-10.486 2.213-10.861-2.113-19.323-2.767-5.414-4.379-7.487-6-7.721-1.219-.175-2.217.141-2.217.703m-14.559 25.672c-1.864 1.494-1.852 1.512.309.465 1.237-.6 2.25-1.3 2.25-1.555 0-.765-.519-.544-2.559 1.09M76.864 148.75c-2.993 3.162-6.475 7.325-7.738 9.25-2.111 3.215-2.027 3.174 1.031-.5 1.831-2.2 5.535-6.363 8.231-9.25 2.696-2.887 4.68-5.25 4.409-5.25-.271 0-2.941 2.588-5.933 5.75m47.798 1.868c-1.562.846-2.588 1.789-2.282 2.095.763.763 6.62-1.744 6.62-2.834 0-1.224-1.045-1.046-4.338.739M169 162.049c-2.507 1.027-3.614 1.848-2.5 1.855 1.1.007 3.575-.85 5.5-1.904 4.379-2.398 2.92-2.374-3 .049M159 165l-2.5.801 2.5.084c1.375.046 3.175-.352 4-.885 1.91-1.234-.146-1.234-4 0m-23.75 2.491c-1.787.777-3.25 1.636-3.25 1.91 0 .48 7.071-2.205 7.917-3.006.874-.828-1.548-.26-4.667 1.096m98.869 3.824c-1.551 3.901-1.399 4.529.456 1.882.866-1.237 1.369-2.799 1.119-3.473-.251-.673-.959.043-1.575 1.591m-15.881 10.062c-.596 1.307-2.4 3.895-4.01 5.75-1.61 1.855-3.209 4.533-3.553 5.951-.345 1.418-1.746 3.786-3.115 5.262-1.399 1.511-2.236 3.341-1.912 4.184.398 1.038.111 1.321-.936.919-.83-.319-1.807-.099-2.17.489-.363.587-1.386 1.068-2.272 1.068-.887 0-2.466.772-3.509 1.716-2.093 1.895-7.127 5.046-13.261 8.304-2.2 1.168-5.386 3.71-7.08 5.647-1.876 2.147-4.085 3.584-5.654 3.678-1.416.085-2.377.475-2.135.866.241.391-1.827 1.011-4.596 1.379-2.769.367-5.035.995-5.035 1.395 0 .401-4.12 1.039-9.155 1.419-5.035.38-9.886 1.083-10.78 1.561-.895.479-4.988 1.158-9.096 1.509-11.804 1.01-11.969 1.078-11.969 4.93 0 6.366 5.798 8.044 23 6.655 11.736-.947 28.57-5.328 27.449-7.142-.304-.492.114-.638.929-.325 1.816.697 8.81-2.478 8.076-3.666-.29-.47 1.845-2.057 4.744-3.527 4.032-2.043 4.923-2.25 3.787-.881-1.422 1.716-1.347 1.72 1.798.094 1.805-.933 3.033-2.1 2.729-2.592-.304-.493 1.369-2.233 3.717-3.868 6.032-4.198 21.639-21.608 16.702-18.631-1.22.736-1.231.616-.068-.818.75-.925 1.714-1.465 2.141-1.2 1.984 1.226 13.029-14.703 12.981-18.72-.011-.936-.262-.894-.924.153-1.077 1.702-4.061-.178-4.061-2.558 0-2.177-1.575-1.607-2.762.999m-127.655 8.489c-.431.697-.513 1.537-.183 1.867.895.895 1.871-.421 1.387-1.871-.338-1.016-.574-1.016-1.204.004m-27.33 5.384c-.546.688-1.296 2.938-1.668 5-.814 4.516-2.585 4.98-2.585.677 0-4.739-2.868-3.321-5.077 2.509l-1.871 4.936 2.724 4.346c1.626 2.594 3.731 4.589 5.224 4.951 1.375.333 4.427 2.161 6.783 4.063 2.356 1.901 4.881 3.227 5.612 2.947 1.374-.528 3.177-11.945 2.148-13.609-.307-.497-.116-3.979.425-7.737 1.159-8.058.266-9.333-6.537-9.333-2.302 0-4.633.563-5.178 1.25m43.826 13.333c.048 1.165.285 1.402.604.605.289-.722.253-1.585-.079-1.917-.332-.332-.568.258-.525 1.312m93.421 9.99c-2.75 2.493-4.1 4.096-3 3.562 1.872-.909 9.419-8.159 8.446-8.114-.245.011-2.696 2.06-5.446 4.552M78.158 222c0 1.375.227 1.938.504 1.25.278-.687.278-1.812 0-2.5-.277-.687-.504-.125-.504 1.25m114.283 2.468c-1.067.808-1.434 1.483-.813 1.5.62.018 1.687-.643 2.372-1.468 1.581-1.905.935-1.918-1.559-.032M173 234c-.825.533-1.05.969-.5.969s1.675-.436 2.5-.969c.825-.533 1.05-.969.5-.969s-1.675.436-2.5.969" fill-rule="evenodd"/>
<path fill="#2b2f30" stroke="#2b2f30" d="M77.5 33.796C66.642 39.789 52.568 50.885 49.336 56c-.868 1.375 1.288-.238 4.793-3.584 7.219-6.892 15.383-12.846 21.331-15.553 4.382-1.996 9.658-5.816 8.04-5.823-.55-.002-3.25 1.238-6 2.756M95.031 61.5c0 .55.436 1.675.969 2.5.533.825.969 1.05.969.5S96.533 62.825 96 62c-.533-.825-.969-1.05-.969-.5M102 74.27c0 3.9 15.632 6.069 36 4.995l14.5-.765L130 78c-19.794-.44-22.831-.724-25.25-2.365-1.513-1.026-2.75-1.64-2.75-1.365m20.566 25.623c-.86 1.391.431 4.035 2.514 5.15 2.199 1.177 1.558 3.557-1.149 4.265-2.342.612-2.455 2.778-.357 6.835.865 1.673 1.428 3.137 1.25 3.252-.178.115-2.799.963-5.824 1.885-17.2 5.244-39.486 23.172-51.929 41.775-7.624 11.398-7.957 12.513-4.708 15.763l2.576 2.575 2.08-4.446c1.144-2.446 3.672-6.472 5.617-8.947 1.946-2.475 4.511-5.85 5.701-7.5C88.012 147.082 123 123.102 123 129.889c0 .611.9 1.111 2 1.111 2.553 0 2.615 2.67.081 3.474-1.275.405-2.139 1.908-2.573 4.479-.744 4.404-2.159 5.921-8.508 9.124-4.442 2.24-13 10.267-13 12.193 0 .545-2.889 4.291-6.42 8.323-5.386 6.151-6.62 8.264-7.665 13.119-.685 3.184-1.617 6.279-2.071 6.879-.469.62-.018 2.75 1.045 4.936l1.87 3.845.745-3.436c.41-1.89 1.527-4.561 2.484-5.936.957-1.375 2.659-4.6 3.783-7.167 8.602-19.648 29.736-34.897 51.175-36.925 14.392-1.362 23.377-4.985 20.212-8.15-.637-.637-1.161-2.531-1.165-4.208-.003-1.678-.795-4.245-1.758-5.707l-1.752-2.656-3.92 1.906c-2.156 1.049-5.113 1.907-6.572 1.907-1.458 0-6.821 2.057-11.917 4.57-5.097 2.514-9.522 4.315-9.835 4.003-.312-.313.181-3.671 1.097-7.464 2.452-10.159 2.161-13.214-2.016-21.188-3.869-7.385-4.817-8.544-5.754-7.028M34.15 184c-.575 1.65-.663 3-.196 3 .468 0 1.321-1.35 1.896-3s.663-3 .196-3c-.468 0-1.321 1.35-1.896 3m20.35 4c-.375 1.183-.458 2.376-.183 2.651.275.275.808-.468 1.183-1.651s.458-2.376.183-2.651c-.275-.275-.808.468-1.183 1.651m.535 16.934c-1.34 2.504-1.324 5.769.032 6.607 1.44.89 1.597.611 2.407-4.291.75-4.544-.573-5.801-2.439-2.316M76.252 218.5c.011 2.2.216 2.982.455 1.738.239-1.244.23-3.044-.02-4s-.446.062-.435 2.262m5.41 1.239c-1.536 2.484-1.912 9.489-.556 10.348 2.471 1.564 2.894 1 2.879-3.837-.016-4.822-1.243-8.26-2.323-6.511m37.481 15.151c-.878.557-1.107 1.647-.651 3.086.773 2.435 1.905 1.776 2.963-1.726.713-2.36-.037-2.801-2.312-1.36m29.67 7.793c.721.289 1.584.253 1.916-.079.332-.332-.258-.568-1.312-.525-1.165.048-1.402.285-.604.604m-23.051 1.024c1.244.239 3.044.23 4-.02s-.062-.446-2.262-.435c-2.2.011-2.982.216-1.738.455m15.488-.018c.963.252 2.537.252 3.5 0 .963-.251.175-.457-1.75-.457s-2.713.206-1.75.457" fill-rule="evenodd"/>
</svg>